# AST/ASF file generated using VICON BodyLanguage
# -----------------------------------------------
:version 1.10
:name VICON
:units
  mass 1.0
  length 0.45
  angle deg
:documentation
   .ast/.asf automatically generated from VICON data using
   VICON BodyBuilder and BodyLanguage model FoxedUp or BRILLIANT.MOD
:root
   order TX TY TZ RX RY RZ
   axis XYZ
   position 0 0 0  
   orientation 0 0 0 
:bonedata
  begin
     id 1 
     name lhipjoint
     direction 0.61886 -0.69539 0.365302 
     length 2.20474 
     axis 0 0 0  XYZ
  end
  begin
     id 2 
     name lfemur
     direction 0.34202 -0.939693 0  
     length 6.65149  
     axis 0 0 20  XYZ
    dof rx ry rz
    limits (-160.0 20.0)
           (-70.0 70.0)
           (-60.0 70.0)
  end
  begin
     id 3 
     name ltibia
     direction 0.34202 -0.939693 0   
     length 6.35814   
     axis 0 0 20   XYZ
    dof rx
    limits (-10.0 170.0)
  end
  begin
     id 4 
     name lfoot
     direction 0.101224 -0.278109 0.955201   
     length 2.18766   
     axis -90 7.62852e-016 20   XYZ
    dof rx rz
    limits (-45.0 90.0)
           (-70.0 20.0)
  end
  begin
     id 5 
     name ltoes
     direction 1.53524e-011 -4.21877e-011 1   
     length 1.09206   
     axis -90 7.62852e-016 20   XYZ
    dof rx
    limits (-90.0 20.0)
  end
  begin
     id 6 
     name rhipjoint
     direction -0.600207 -0.708087 0.371972   
     length 2.1652  
     axis 0 0 0  XYZ 
  end
  begin
     id 7 
     name rfemur
     direction -0.34202 -0.939693 0   
     length 6.54691   
     axis 0 0 -20   XYZ
    dof rx ry rz
    limits (-160.0 20.0)
           (-70.0 70.0)
           (-70.0 60.0)
  end
  begin
     id 8 
     name rtibia
     direction -0.34202 -0.939693 0   
     length 6.37474   
     axis 0 0 -20   XYZ
    dof rx
    limits (-10.0 170.0)
 end
 begin
     id 9 
     name rfoot
     direction -0.111266 -0.3057 0.945604   
     length 2.00903  
     axis -90 -7.62852e-016 -20   XYZ
    dof rx rz
    limits (-45.0 90.0)
           (-20.0 70.0)
  end
  begin
     id 10 
     name rtoes
     direction -1.5362e-011 -4.21913e-011 1   
     length 1.00221   
     axis -90 -7.62852e-016 -20   XYZ
    dof rx
    limits (-90.0 20.0)
  end
  begin
     id 11 
     name lowerback
     direction -0.0224561 0.999731 -0.00577314   
     length 2.10409   
     axis 0 0 0   XYZ
    dof rx ry rz
    limits (-20.0 45.0)
           (-30.0 30.0)
           (-30.0 30.0)
  end
  begin
     id 12 
     name upperback
     direction 0.0213126 0.999185 -0.0342817   
     length 2.09783   
     axis 0 0 0   XYZ
    dof rx ry rz
    limits (-20.0 45.0)
           (-30.0 30.0)
           (-30.0 30.0)
  end
  begin
     id 13 
     name thorax
     direction 0.0312356 0.999036 -0.0308451   
     length 2.09788   
     axis 0 0 0   XYZ
    dof rx ry rz
    limits (-20.0 45.0)
           (-30.0 30.0)
           (-30.0 30.0)
  end
  begin
     id 14 
     name lowerneck
     direction -0.0114419 0.996481 0.0830329   
     length 1.38575   
     axis 0 0 0   XYZ
    dof rx ry rz
    limits (-20.0 45.0)
           (-30.0 30.0)
           (-30.0 30.0)
  end
  begin
     id 15 
     name upperneck
     direction -0.0075675 0.996187 -0.0869092   
     length 1.39401   
     axis 0 0 0   XYZ
    dof rx ry rz
    limits (-20.0 45.0)
           (-30.0 30.0)
           (-30.0 30.0)
  end
  begin
     id 16
     name head
     direction -0.00222073 0.999264 -0.0382974  
     length 1.3964  
     axis 0 0 0   XYZ
    dof rx ry rz
    limits (-20.0 45.0)
           (-30.0 30.0)
           (-30.0 30.0)
  end
  begin
     id 17 
     name lclavicle
     direction 0.965962 0.222138 0.132556  
     length 2.81514  
     axis 0 0 0   XYZ
    dof ry rz
    limits (-20.0 10.0)
           (0.0 20.0)
  end
  begin
     id 18 
     name lhumerus
     direction 1 -4.48972e-011 7.03471e-018   
     length 4.47366   
     axis 180 -30 -90   XYZ
    dof rx ry rz
    limits (-60.0 90.0)
           (-90.0 90.0)
           (-90.0 90.0)
  end
  begin
     id 19
     name lradius
     direction 1 -4.48951e-011 -6.22192e-028   
     length 3.19948   
     axis 180 -30 -90   XYZ
    dof rx
    limits (-10.0 170.0)
  end
  begin
     id 20
     name lwrist
     direction 1 -4.48967e-011 -1.24264e-027   
     length 1.59974   
     axis 1.40095e-015 90 90   XYZ
    dof ry
    limits (-180.0 0.0)
 end
  begin
     id 21 
     name lhand
     direction 1 -4.4897e-011 -2.48528e-027   
     length 0.492667   
     axis 1.58582e-015 90 90   XYZ
    dof rx rz
    limits (-90.0 90.0)
           (-45.0 45.0)
  end
  begin
     id 22 
     name lfingers
     direction 1 -4.48996e-011 -4.97056e-027   
     length 0.397201   
     axis 3.17164e-015 90 90   XYZ
    dof rx
    limits (0.0 90.0)
  end
  begin
     id 23
     name lthumb
     direction 0.707107 -6.34981e-011 0.707107   
     length 0.570303   
     axis -90 45 2.85299e-015   XYZ
    dof rx rz
    limits (-45.0 45.0)
           (-45.0 45.0)
  end
  begin
     id 24 
     name rclavicle
     direction -0.961164 0.229034 0.153972   
     length 3.09348  
     axis 0 0 0   XYZ 
    dof ry rz
    limits (-10.0 20.0)
           (-20.0 0.0)
  end
  begin
     id 25 
     name rhumerus
     direction -1 -4.48971e-011 -9.06263e-028  
     length 4.3269   
     axis 180 30 90   XYZ
    dof rx ry rz
    limits (-90.0 60.0)
           (-90.0 90.0)
           (-90.0 90.0)
  end
  begin
     id 26 
     name rradius
     direction -1 -4.48953e-011 1.44659e-027   
     length 3.1896   
     axis 180 30 90   XYZ
    dof rx
    limits (-10.0 170.0)
  end
  begin
     id 27 
     name rwrist
     direction -1 -4.48988e-011 -1.24264e-027   
     length 1.5948   
     axis 1.40095e-015 -90 -90   XYZ
    dof ry
    limits (-180.0 0.0)
  end
  begin
     id 28
     name rhand
     direction -1 -4.49033e-011 -2.48528e-027   
     length 0.464496   
     axis 1.58582e-015 -90 -90   XYZ
    dof rx rz
    limits (-90.0 90.0)
           (-45.0 45.0)
  end
  begin
     id 29
     name rfingers
     direction -1 -4.48905e-011 -4.97056e-027   
     length 0.374489   
     axis 3.17164e-015 -90 -90   XYZ
    dof rx
    limits (0.0 90.0)
  end
  begin
     id 30
     name rthumb
     direction -0.707107 -6.34909e-011 0.707107   
     length 0.537693   
     axis -90 -45 -2.85299e-015   XYZ
    dof rx rz
    limits (-45.0 45.0)
           (-45.0 45.0)
  end
:hierarchy
  begin
    root lhipjoint rhipjoint lowerback
    lhipjoint lfemur
    lfemur ltibia
    ltibia lfoot
    lfoot ltoes
    rhipjoint rfemur
    rfemur rtibia
    rtibia rfoot
    rfoot rtoes
    lowerback upperback
    upperback thorax
    thorax lowerneck lclavicle rclavicle
    lowerneck upperneck
    upperneck head
    lclavicle lhumerus
    lhumerus lradius
    lradius lwrist
    lwrist lhand lthumb
    lhand lfingers
    rclavicle rhumerus
    rhumerus rradius
    rradius rwrist
    rwrist rhand rthumb
    rhand rfingers
  end

#!OML:ASF G:\acrobat\cartwheel_test 2\Patient 1\Session 2\acrobat4.ASF
:FULLY-SPECIFIED
:DEGREES
1
root 8.94342 15.1219 14.1659 -7.33884 88.4727 -12.9335
lowerback -5.37838 3.37141 1.46683
upperback -3.68829 4.51871 0.426471
thorax -0.709183 2.27923 -0.169552
lowerneck -7.92483 9.87455 8.03059
upperneck 14.0213 13.8074 -7.82422
head 6.6734 6.63797 -2.54325
rclavicle 2.43263e-014 1.11319e-014
rhumerus -47.6379 -60.1866 23.2034
rradius 46.6019
rwrist -77.9657
rhand 3.87505 -27.649
rfingers 7.12502
rthumb 29.2964 -55.3614
lclavicle 2.43263e-014 1.11319e-014
lhumerus -18.672 65.0299 4.78347
lradius 36.6599
lwrist -92.6573
lhand -30.5383 -4.57653
lfingers 7.12502
lthumb -3.8373 25.3687
rfemur -12.2234 7.22034 28.7832
rtibia 36.3514
rfoot -24.1227 -31.4367
rtoes 0.51111
lfemur -35.8628 8.60463 -27.161
ltibia 41.9972
lfoot -13.2238 17.0782
ltoes -1.05964
2
root 8.93744 15.1222 14.1589 -5.77297 88.4041 -11.3395
lowerback -5.36908 3.35793 1.52274
upperback -3.68928 4.49845 0.415237
thorax -0.710554 2.26791 -0.213545
lowerneck -7.90647 9.82827 8.10777
upperneck 14.037 13.7286 -7.79321
head 6.67193 6.60588 -2.55462
rclavicle -1.07344e-014 -6.55989e-015
rhumerus -47.5823 -60.3482 23.1929
rradius 46.5586
rwrist -77.8843
rhand 3.7547 -27.3774
rfingers 7.12502
rthumb 29.1815 -55.1098
lclavicle -1.07344e-014 -6.55989e-015
lhumerus -18.7387 64.9225 4.66488
lradius 36.6184
lwrist -92.2285
lhand -31.0475 -4.67161
lfingers 7.12502
lthumb -4.329 25.2641
rfemur -12.2607 7.01387 28.689
rtibia 36.4286
rfoot -24.1852 -31.1633
rtoes 0.560662
lfemur -35.8124 8.79307 -27.2329
ltibia 41.93
lfoot -13.2922 16.9098
ltoes -0.798242
3
root 8.93049 15.1235 14.1519 -7.51375 88.3843 -13.0969
lowerback -5.42329 3.30253 1.62451
upperback -3.68557 4.41995 0.475757
thorax -0.675185 2.22807 -0.208285
lowerneck -7.81779 9.80488 7.94834
upperneck 13.8997 13.6829 -7.6467
head 6.58714 6.58961 -2.49763
rclavicle 2.93207e-015 1.0138e-014
rhumerus -47.3387 -60.4596 23.0345
rradius 46.5017
rwrist -77.843
rhand 3.75217 -26.8449
rfingers 7.12502
rthumb 29.1791 -54.5778
lclavicle 2.93207e-015 1.0138e-014
lhumerus -19.0454 64.8193 4.38819
lradius 36.6407
lwrist -91.9209
lhand -31.1317 -4.79345
lfingers 7.12502
lthumb -4.41031 25.1406
rfemur -12.3164 6.97347 28.696
rtibia 36.4687
rfoot -24.3672 -30.9974
rtoes 0.939921
lfemur -35.8696 9.19117 -27.3132
ltibia 41.8838
lfoot -13.2425 16.5456
ltoes -0.958717
4
root 8.92483 15.1257 14.1453 -7.63379 88.3743 -13.2125
lowerback -5.45917 3.25777 1.65856
upperback -3.68144 4.35836 0.510556
thorax -0.652227 2.19734 -0.192268
lowerneck -7.44497 9.63196 7.86912
upperneck 13.297 13.4366 -7.7483
head 6.31336 6.47596 -2.57424
rclavicle -2.127e-014 -3.57812e-015
rhumerus -47.2357 -60.3822 22.921
rradius 46.5114
rwrist -77.9849
rhand 3.72379 -26.7002
rfingers 7.12502
rthumb 29.152 -54.4377
lclavicle -2.127e-014 -3.57812e-015
lhumerus -19.1998 64.7002 4.21096
lradius 36.6994
lwrist -91.7062
lhand -30.8252 -4.91356
lfingers 7.12502
lthumb -4.11431 25.0265
rfemur -12.3469 6.94199 28.6508
rtibia 36.5056
rfoot -24.5243 -30.8347
rtoes 1.3031
lfemur -35.8952 9.43482 -27.4074
ltibia 41.8476
lfoot -13.1815 16.3277
ltoes -0.999881
5
root 8.91967 15.1251 14.1387 -6.46009 88.3265 -11.9957
lowerback -5.46452 3.223 1.64552
upperback -3.6599 4.31155 0.537884
thorax -0.630785 2.17436 -0.158385
lowerneck -6.69195 9.25618 7.88499
upperneck 12.1185 12.9217 -8.16771
head 5.80176 6.23293 -2.81731
rclavicle 9.24349e-015 2.78299e-015
rhumerus -47.164 -60.3785 22.801
rradius 46.5665
rwrist -78.0972
rhand 3.57459 -26.4943
rfingers 7.12502
rthumb 29.0095 -54.2564
lclavicle 9.24349e-015 2.78299e-015
lhumerus -19.284 64.6071 4.06754
lradius 36.7294
lwrist -91.4003
lhand -30.7588 -4.91329
lfingers 7.12502
lthumb -4.05019 25.028
rfemur -12.3385 6.87032 28.5702
rtibia 36.5185
rfoot -24.4989 -30.6724
rtoes 1.44307
lfemur -35.8597 9.4365 -27.4446
ltibia 41.8332
lfoot -13.1384 16.3564
ltoes -1.07536
6
root 8.91249 15.1212 14.1332 -8.65495 88.2833 -14.1538
lowerback -5.48582 3.16548 1.68458
upperback -3.60107 4.23068 0.628672
thorax -0.563647 2.13429 -0.0879034
lowerneck -6.27236 8.98276 7.86224
upperneck 11.2985 12.5368 -8.43471
head 5.45921 6.04799 -2.96734
rclavicle 1.81888e-014 -1.19271e-015
rhumerus -46.9054 -60.501 22.5761
rradius 46.5751
rwrist -78.1786
rhand 3.18154 -26.0913
rfingers 7.12502
rthumb 28.634 -53.9174
lclavicle 1.81888e-014 -1.19271e-015
lhumerus -19.4121 64.5505 3.91457
lradius 36.7277
lwrist -91.0336
lhand -31.0011 -4.62326
lfingers 7.12502
lthumb -4.28419 25.3134
rfemur -12.3443 6.78529 28.6128
rtibia 36.5218
rfoot -24.3323 -30.5826
rtoes 1.48278
lfemur -35.8539 9.35742 -27.3436
ltibia 41.8288
lfoot -13.126 16.4389
ltoes -0.96804
7
root 8.9044 15.122 14.1271 -12.7547 88.2597 -18.2427
lowerback -5.53943 3.09915 1.78348
upperback -3.52062 4.13387 0.73453
thorax -0.453441 2.08572 -0.0333429
lowerneck -6.42273 8.90213 8.00692
upperneck 11.1835 12.4171 -8.65346
head 5.46226 5.97848 -3.06282
rclavicle 3.08116e-015 1.98785e-015
rhumerus -46.7102 -60.6846 22.5114
rradius 46.5135
rwrist -78.1183
rhand 2.98555 -26.3934
rfingers 7.12502
rthumb 28.4468 -54.251
lclavicle 3.08116e-015 1.98785e-015
lhumerus -19.4361 64.5926 3.83301
lradius 36.6827
lwrist -90.7837
lhand -31.2152 -4.38008
lfingers 7.12502
lthumb -4.49096 25.5523
rfemur -12.3712 6.79381 28.7194
rtibia 36.5288
rfoot -24.323 -30.5408
rtoes 1.73044
lfemur -35.8777 9.3122 -27.2192
ltibia 41.8221
lfoot -13.104 16.4905
ltoes -0.724488
8
root 8.89714 15.1265 14.1191 -14.8666 88.2002 -20.3658
lowerback -5.59552 3.06043 1.89899
upperback -3.47578 4.07431 0.804022
thorax -0.37429 2.05536 -0.0244985
lowerneck -6.50445 8.84557 8.08553
upperneck 11.0808 12.3364 -8.81309
head 5.45253 5.93117 -3.12951
rclavicle -1.37658e-014 -5.56597e-015
rhumerus -46.7487 -60.852 22.7024
rradius 46.4675
rwrist -77.8447
rhand 3.69069 -27.2323
rfingers 7.12502
rthumb 29.1204 -54.9753
lclavicle -1.37658e-014 -5.56597e-015
lhumerus -19.4104 64.6464 3.80382
lradius 36.654
lwrist -90.6882
lhand -31.2951 -4.32559
lfingers 7.12502
lthumb -4.56809 25.6052
rfemur -12.4146 6.98412 28.7662
rtibia 36.5435
rfoot -24.4567 -30.545
rtoes 1.97349
lfemur -35.9096 9.3339 -27.1692
ltibia 41.8073
lfoot -13.0861 16.5076
ltoes -0.670358
9
root 8.89152 15.1267 14.1124 -13.0245 88.0848 -18.5073
lowerback -5.62546 3.06173 1.95056
upperback -3.44072 4.07112 0.808315
thorax -0.318466 2.05312 -0.0457589
lowerneck -6.48826 8.78156 8.0173
upperneck 10.9077 12.2237 -8.71799
head 5.37607 5.87975 -3.10418
rclavicle -1.03368e-014 7.15625e-015
rhumerus -46.8889 -60.8305 22.8323
rradius 46.4783
rwrist -77.7776
rhand 4.77215 -27.3577
rfingers 7.12502
rthumb 30.1526 -54.9173
lclavicle -1.03368e-014 7.15625e-015
lhumerus -19.2359 64.6739 3.93942
lradius 36.6702
lwrist -90.634
lhand -31.3468 -4.26402
lfingers 7.12502
lthumb -4.61801 25.6656
rfemur -12.4319 7.17546 28.6949
rtibia 36.5648
rfoot -24.5168 -30.5131
rtoes 2.04024
lfemur -35.9251 9.60185 -27.2623
ltibia 41.7846
lfoot -13.1409 16.3671
ltoes -0.618717
10
root 8.88519 15.125 14.1052 -10.7343 87.9672 -16.1627
lowerback -5.66284 3.04091 2.00855
upperback -3.34956 4.03467 0.78237
thorax -0.198593 2.03368 -0.100862
lowerneck -6.56182 8.75968 8.13348
upperneck 10.7708 12.1548 -8.70193
head 5.34645 5.84848 -3.12241
rclavicle -8.05078e-015 -7.55382e-015
rhumerus -46.9298 -60.8133 22.7408
rradius 46.481
rwrist -77.9733
rhand 5.22693 -27.1672
rfingers 7.12502
rthumb 30.5864 -54.6466
lclavicle -8.05078e-015 -7.55382e-015
lhumerus -19.1003 64.7227 3.98759
lradius 36.7153
lwrist -90.5113
lhand -31.3393 -4.24921
lfingers 7.12502
lthumb -4.61082 25.6806
rfemur -12.4332 7.04927 28.5637
rtibia 36.5862
rfoot -24.4515 -30.2543
rtoes 1.93721
lfemur -35.9311 10.0482 -27.4369
ltibia 41.7635
lfoot -13.1475 16.1319
ltoes -0.723127
